HIERARCHY
ROOT Hips
{
	OFFSET 0.000000 83.214638 0.000000
	CHANNELS 6 Xposition Yposition Zposition Xrotation Yrotation Zrotation
	JOINT Pelvis
	{
		OFFSET 0.000000 0.000000 0.000000
		CHANNELS 3 Xrotation Yrotation Zrotation
		JOINT LeftUpLeg
		{
			OFFSET 8.479700 -4.795502 -0.379100
			CHANNELS 3 Xrotation Yrotation Zrotation
			JOINT LeftLeg
			{
				OFFSET 0.024144 -32.555107 0.112900
				CHANNELS 3 Xrotation Yrotation Zrotation
				JOINT LeftFoot
				{
					OFFSET -0.024144 -32.638630 -3.012600
					CHANNELS 3 Xrotation Yrotation Zrotation
					JOINT LeftToeBase
					{
						OFFSET 0.970200 -13.225400 11.864200
						CHANNELS 3 Xrotation Yrotation Zrotation
						End Site
						{
							OFFSET 0.000000 12.319262 0.000000
						}
					}
					JOINT LFootTongue
					{
						OFFSET 1.142400 -1.059800 6.665200
						CHANNELS 3 Xrotation Yrotation Zrotation
						End Site
						{
							OFFSET 0.000000 12.319262 0.000000
						}
					}
				}
				JOINT LeftPantLeg
				{
					OFFSET 0.918482 -16.533964 -2.284700
					CHANNELS 3 Xrotation Yrotation Zrotation
					End Site
					{
						OFFSET 0.350399 24.744368 0.000000
					}
				}
			}
		}
		JOINT RightUpLeg
		{
			OFFSET -8.479700 -4.795502 -0.379100
			CHANNELS 3 Xrotation Yrotation Zrotation
			JOINT RightLeg
			{
				OFFSET -0.023144 -32.555092 0.112900
				CHANNELS 3 Xrotation Yrotation Zrotation
				JOINT RightFoot
				{
					OFFSET 0.023144 -32.638641 -3.012700
					CHANNELS 3 Xrotation Yrotation Zrotation
					JOINT RightToeBase
					{
						OFFSET -0.970200 -13.225400 11.864200
						CHANNELS 3 Xrotation Yrotation Zrotation
						End Site
						{
							OFFSET 0.000000 12.319244 0.000000
						}
					}
					JOINT RFootTongue
					{
						OFFSET -1.142200 -1.059800 6.665200
						CHANNELS 3 Xrotation Yrotation Zrotation
						End Site
						{
							OFFSET 0.000000 12.319243 0.000000
						}
					}
				}
				JOINT RightPantLeg
				{
					OFFSET -0.919482 -16.533978 -2.284800
					CHANNELS 3 Xrotation Yrotation Zrotation
					End Site
					{
						OFFSET -0.350400 24.744419 0.000000
					}
				}
			}
		}
	}
	JOINT Spine
	{
		OFFSET 0.000000 7.722000 1.166200
		CHANNELS 3 Xrotation Yrotation Zrotation
		JOINT Spine1
		{
			OFFSET 0.000000 12.024101 0.248800
			CHANNELS 3 Xrotation Yrotation Zrotation
			JOINT Spine2
			{
				OFFSET 0.000000 11.502998 -0.491200
				CHANNELS 3 Xrotation Yrotation Zrotation
				JOINT Neck
				{
					OFFSET 0.000000 18.430702 -3.123100
					CHANNELS 3 Xrotation Yrotation Zrotation
					JOINT Head
					{
						OFFSET 0.000000 9.051102 1.034000
						CHANNELS 3 Xrotation Yrotation Zrotation
						JOINT HairB
						{
							OFFSET 0.208400 24.786102 24.822300
							CHANNELS 3 Xrotation Yrotation Zrotation
							End Site
							{
								OFFSET 0.000000 32.263779 0.000000
							}
						}
						JOINT HairA
						{
							OFFSET -7.081100 24.428299 23.196600
							CHANNELS 3 Xrotation Yrotation Zrotation
							End Site
							{
								OFFSET 0.000000 32.263779 0.000000
							}
						}
						JOINT Hat
						{
							OFFSET 16.728800 15.048294 -15.439601
							CHANNELS 3 Xrotation Yrotation Zrotation
							End Site
							{
								OFFSET 0.000000 32.263779 0.000000
							}
						}
					}
				}
				JOINT LeftShoulder
				{
					OFFSET 6.197800 13.665199 -4.064700
					CHANNELS 3 Xrotation Yrotation Zrotation
					JOINT LeftArm
					{
						OFFSET 7.778100 -0.187103 -1.709300
						CHANNELS 3 Xrotation Yrotation Zrotation
						JOINT LeftForeArm
						{
							OFFSET 22.049376 0.000000 0.000000
							CHANNELS 3 Xrotation Yrotation Zrotation
							JOINT LeftHand
							{
								OFFSET 23.009392 0.000000 0.000000
								CHANNELS 3 Xrotation Yrotation Zrotation
								JOINT LeftHandThumb1
								{
									OFFSET 3.507191 -2.063065 3.133727
									CHANNELS 3 Xrotation Yrotation Zrotation
									JOINT LeftHandThumb2
									{
										OFFSET 3.101337 -1.790558 1.790558
										CHANNELS 3 Xrotation Yrotation Zrotation
										JOINT LeftHandThumb3
										{
											OFFSET 3.058640 -1.765907 1.765906
											CHANNELS 3 Xrotation Yrotation Zrotation
											End Site
											{
												OFFSET -0.415260 3.926476 -0.049563
											}
										}
									}
								}
								JOINT LeftHandIndex1
								{
									OFFSET 11.334419 -0.901459 3.706815
									CHANNELS 3 Xrotation Yrotation Zrotation
									JOINT LeftHandIndex2
									{
										OFFSET 3.283112 0.000000 0.000000
										CHANNELS 3 Xrotation Yrotation Zrotation
										JOINT LeftHandIndex3
										{
											OFFSET 3.323853 0.000000 0.000000
											CHANNELS 3 Xrotation Yrotation Zrotation
											End Site
											{
												OFFSET -1.135597 3.097809 0.402452
											}
										}
									}
								}
								JOINT LeftHandMiddle1
								{
									OFFSET 11.335861 0.000000 0.000000
									CHANNELS 3 Xrotation Yrotation Zrotation
									JOINT LeftHandMiddle2
									{
										OFFSET 3.410492 0.000000 0.000000
										CHANNELS 3 Xrotation Yrotation Zrotation
										JOINT LeftHandMiddle3
										{
											OFFSET 3.312172 0.000000 0.000000
											CHANNELS 3 Xrotation Yrotation Zrotation
											End Site
											{
												OFFSET -1.150200 3.080154 0.400270
											}
										}
									}
								}
								JOINT LeftHandRing1
								{
									OFFSET 11.514786 -0.013176 -3.003090
									CHANNELS 3 Xrotation Yrotation Zrotation
									JOINT LeftHandRing2
									{
										OFFSET 3.053307 0.000000 0.000000
										CHANNELS 3 Xrotation Yrotation Zrotation
										JOINT LeftHandRing3
										{
											OFFSET 3.295807 0.000000 0.000000
											CHANNELS 3 Xrotation Yrotation Zrotation
											End Site
											{
												OFFSET -1.281006 3.013344 0.375733
											}
										}
									}
								}
								JOINT LeftHandPinky1
								{
									OFFSET 10.518692 -0.960396 -5.730441
									CHANNELS 3 Xrotation Yrotation Zrotation
									JOINT LeftHandPinky2
									{
										OFFSET 2.861649 0.000000 0.000000
										CHANNELS 3 Xrotation Yrotation Zrotation
										JOINT LeftHandPinky3
										{
											OFFSET 2.863380 0.000000 0.000000
											CHANNELS 3 Xrotation Yrotation Zrotation
											End Site
											{
												OFFSET -0.843597 2.711159 0.369971
											}
										}
									}
								}
							}
							JOINT LSleeve
							{
								OFFSET 6.676277 -0.344902 -1.011730
								CHANNELS 3 Xrotation Yrotation Zrotation
								End Site
								{
									OFFSET 0.000000 14.885353 0.000000
								}
							}
						}
					}
				}
				JOINT RightShoulder
				{
					OFFSET -6.197800 13.665199 -4.064700
					CHANNELS 3 Xrotation Yrotation Zrotation
					JOINT RightArm
					{
						OFFSET -7.778100 -0.187103 -1.709300
						CHANNELS 3 Xrotation Yrotation Zrotation
						JOINT RightForeArm
						{
							OFFSET -22.049376 0.000000 0.000000
							CHANNELS 3 Xrotation Yrotation Zrotation
							JOINT RightHand
							{
								OFFSET -23.009392 0.000000 0.000000
								CHANNELS 3 Xrotation Yrotation Zrotation
								JOINT RightHandThumb1
								{
									OFFSET -3.507191 -2.063065 3.133727
									CHANNELS 3 Xrotation Yrotation Zrotation
									JOINT RightHandThumb2
									{
										OFFSET -3.101337 -1.790558 1.790558
										CHANNELS 3 Xrotation Yrotation Zrotation
										JOINT RightHandThumb3
										{
											OFFSET -3.058640 -1.765907 1.765906
											CHANNELS 3 Xrotation Yrotation Zrotation
											End Site
											{
												OFFSET 0.415260 3.926476 -0.049563
											}
										}
									}
								}
								JOINT RightHandIndex1
								{
									OFFSET -11.334419 -0.901459 3.706815
									CHANNELS 3 Xrotation Yrotation Zrotation
									JOINT RightHandIndex2
									{
										OFFSET -3.283112 0.000000 0.000000
										CHANNELS 3 Xrotation Yrotation Zrotation
										JOINT RightHandIndex3
										{
											OFFSET -3.323853 0.000000 0.000000
											CHANNELS 3 Xrotation Yrotation Zrotation
											End Site
											{
												OFFSET 1.135597 3.097809 0.402452
											}
										}
									}
								}
								JOINT RightHandMiddle1
								{
									OFFSET -11.335861 0.000000 0.000000
									CHANNELS 3 Xrotation Yrotation Zrotation
									JOINT RightHandMiddle2
									{
										OFFSET -3.410492 0.000000 0.000000
										CHANNELS 3 Xrotation Yrotation Zrotation
										JOINT RightHandMiddle3
										{
											OFFSET -3.312172 0.000000 0.000000
											CHANNELS 3 Xrotation Yrotation Zrotation
											End Site
											{
												OFFSET 1.150200 3.080154 0.400270
											}
										}
									}
								}
								JOINT RightHandRing1
								{
									OFFSET -11.514786 -0.013176 -3.003090
									CHANNELS 3 Xrotation Yrotation Zrotation
									JOINT RightHandRing2
									{
										OFFSET -3.053307 0.000000 0.000000
										CHANNELS 3 Xrotation Yrotation Zrotation
										JOINT RightHandRing3
										{
											OFFSET -3.295807 0.000000 0.000000
											CHANNELS 3 Xrotation Yrotation Zrotation
											End Site
											{
												OFFSET 1.281006 3.013344 0.375733
											}
										}
									}
								}
								JOINT RightHandPinky1
								{
									OFFSET -10.518692 -0.960396 -5.730441
									CHANNELS 3 Xrotation Yrotation Zrotation
									JOINT RightHandPinky2
									{
										OFFSET -2.861649 0.000000 0.000000
										CHANNELS 3 Xrotation Yrotation Zrotation
										JOINT RightHandPinky3
										{
											OFFSET -2.863380 0.000000 0.000000
											CHANNELS 3 Xrotation Yrotation Zrotation
											End Site
											{
												OFFSET 0.843597 2.711159 0.369971
											}
										}
									}
								}
							}
							JOINT RSleeve
							{
								OFFSET -6.676277 -0.344902 -1.011730
								CHANNELS 3 Xrotation Yrotation Zrotation
								End Site
								{
									OFFSET 0.000000 14.885353 0.000000
								}
							}
						}
					}
				}
				JOINT Backpack
				{
					OFFSET 0.000000 -2.471497 36.677502
					CHANNELS 3 Xrotation Yrotation Zrotation
					End Site
					{
						OFFSET 0.000000 20.427315 0.000000
					}
				}
				JOINT Hood
				{
					OFFSET 0.000000 18.754097 -10.431000
					CHANNELS 3 Xrotation Yrotation Zrotation
					JOINT Hood1
					{
						OFFSET 0.000000 -5.011002 -7.685901
						CHANNELS 3 Xrotation Yrotation Zrotation
						End Site
						{
							OFFSET 0.000000 9.175140 0.000000
						}
					}
				}
				JOINT LHoodieString
				{
					OFFSET 5.250500 16.397697 3.089900
					CHANNELS 3 Xrotation Yrotation Zrotation
					JOINT LHoodieString1
					{
						OFFSET 0.257700 -6.364304 3.694600
						CHANNELS 3 Xrotation Yrotation Zrotation
						JOINT LHoodieString2
						{
							OFFSET 0.000000 -9.643799 2.679100
							CHANNELS 3 Xrotation Yrotation Zrotation
							End Site
							{
								OFFSET 0.000000 10.009018 0.000000
							}
						}
					}
				}
				JOINT RHoodieString
				{
					OFFSET -5.250500 16.397697 3.089900
					CHANNELS 3 Xrotation Yrotation Zrotation
					JOINT RHoodieString1
					{
						OFFSET -0.257700 -6.364304 3.694600
						CHANNELS 3 Xrotation Yrotation Zrotation
						JOINT RHoodieString2
						{
							OFFSET 0.000000 -9.643799 2.679100
							CHANNELS 3 Xrotation Yrotation Zrotation
							End Site
							{
								OFFSET 0.000000 10.009018 0.000000
							}
						}
					}
				}
			}
			JOINT LBackpack_Strap
			{
				OFFSET 15.223200 -7.719803 -6.610900
				CHANNELS 3 Xrotation Yrotation Zrotation
				End Site
				{
					OFFSET 0.000000 16.040596 0.000000
				}
			}
			JOINT RBackpack_Strap
			{
				OFFSET -15.223000 -7.719803 -6.610900
				CHANNELS 3 Xrotation Yrotation Zrotation
				End Site
				{
					OFFSET 0.000000 16.040596 0.000000
				}
			}
		}
	}
	JOINT BoyFacialAnim_Joint
	{
		OFFSET 1.000000 -82.208099 -1.550900
		CHANNELS 3 Xrotation Yrotation Zrotation
		End Site
		{
			OFFSET 0.000000 30.012791 0.000000
		}
	}
}
MOTION
Frames: 4
Frame Time: 0.016667
-0.093153 72.468597 -0.632437 -14.105828 4.551980 -0.320197 0.000001 0.000000 -0.000000 -19.279981 -2.204203 14.171142 58.150216 -0.402691 0.374214 -24.411316 -1.511287 -11.774640 0.000000 -0.000000 -0.000000 0.000000 -0.000000 -0.000000 -0.000000 0.000000 0.000000 -15.740707 -9.794506 -15.694207 57.735179 0.101133 -0.385141 -26.972422 -3.746728 10.498037 -0.000000 0.000000 0.000000 -0.000000 0.000000 0.000000 -0.000001 -0.000001 0.000001 20.016448 -0.033846 0.812619 6.967311 -0.338752 0.679832 6.967508 -0.337003 0.677442 -12.249458 -1.248218 -0.496002 -16.116685 -1.754211 -0.002246 -0.000000 -0.000000 -0.000000 -0.000000 -0.000000 -0.000000 -0.000000 -0.000000 -0.000000 3.082227 -9.945127 -6.811323 -13.959253 -7.908229 -60.295257 69.634216 -63.509127 71.597041 17.167906 -2.491272 -13.648285 2.689265 3.159876 6.593319 -0.080933 21.143651 -2.540017 0.000001 -0.000003 0.000003 -10.621182 2.937296 -19.267721 1.676655 6.185719 -21.756494 0.000000 -0.000001 -0.000006 -13.823047 9.936944 -22.469226 6.049011 4.246405 -31.221963 0.000000 0.000001 -0.000001 -10.744660 8.325286 -36.571077 3.038186 0.221623 -39.078716 0.000001 0.000001 -0.000004 -11.942425 9.095567 -39.265467 4.640671 -6.164071 -45.289294 -0.000000 0.000001 -0.000000 0.000001 0.000000 0.000001 8.709558 -2.418516 18.823131 -21.494479 12.934317 56.855509 76.344112 65.516991 -70.724532 6.442921 -2.140705 3.544951 2.153180 -3.555306 -6.484357 -0.079148 -21.145992 2.540884 0.000003 -0.000000 -0.000001 -10.621239 -2.937080 19.269101 1.668982 -6.188793 21.755244 -0.000001 0.000000 -0.000000 -13.688475 -10.244115 24.164192 6.044764 -4.250324 31.223349 0.000001 -0.000003 -0.000004 -10.744594 -8.325842 36.569997 3.037666 -0.220796 39.079300 -0.000001 -0.000004 -0.000000 -11.872854 -9.179258 39.251991 4.640925 6.162574 45.288829 -0.000001 -0.000000 0.000000 -0.000002 -0.000000 0.000001 0.000002 0.000000 -0.000000 0.000002 0.000000 -0.000000 0.000002 0.000000 -0.000000 0.000002 0.000000 -0.000000 0.000002 0.000000 -0.000000 0.000000 -0.000000 0.000000 0.000002 0.000000 -0.000000 0.000002 0.000000 -0.000000 0.000000 -0.000000 0.000000 -0.000000 -0.000000 0.000000 -0.000000 -0.000000 0.000000 0.000001 0.000000 -0.000000 
-0.079099 72.433914 -0.588598 -14.111054 4.577261 -0.347100 0.000001 0.000000 -0.000000 -19.305055 -2.219671 14.208029 58.286642 -0.387796 0.375405 -24.522339 -1.555814 -11.784464 -0.000000 0.000000 0.000000 -0.000000 0.000000 0.000000 -0.000001 -0.000001 -0.000000 -15.724059 -9.815848 -15.696871 57.816370 0.103381 -0.385991 -27.056751 -3.747803 10.524027 -0.000000 -0.000002 -0.000000 -0.000000 -0.000002 -0.000000 -0.000002 0.000001 0.000001 20.015571 -0.029289 0.830656 6.967177 -0.335988 0.689695 6.967396 -0.333837 0.687154 -12.402455 -1.254038 -0.550726 -15.969515 -1.766948 -0.026611 -0.000000 -0.000000 0.000000 -0.000000 -0.000000 0.000000 -0.000000 -0.000000 0.000000 2.956826 -10.038398 -7.341125 -14.073640 -7.895410 -59.003675 69.357258 -63.656058 70.461215 17.123223 -2.624941 -13.215299 2.689252 3.159879 6.593323 -0.287822 20.662234 -2.531892 0.000002 0.000000 -0.000001 -11.138172 2.712247 -18.389678 1.552170 5.861877 -19.735867 0.000002 0.000000 -0.000005 -13.879107 10.042367 -21.846836 5.907028 4.051366 -29.917219 0.000000 -0.000002 -0.000004 -10.653136 8.348609 -36.293337 2.916223 0.076519 -38.156766 -0.000001 0.000001 -0.000002 -11.616300 8.724558 -38.572991 4.514727 -6.309750 -43.933344 0.000001 -0.000003 -0.000002 -0.000001 0.000001 0.000001 8.710146 -2.421087 18.860179 -21.489469 12.863789 56.693681 76.539339 65.641799 -70.847490 6.461551 -2.179865 3.507919 2.153181 -3.555325 -6.484352 -0.610697 -20.410521 2.900129 0.000001 -0.000001 0.000003 -10.520684 -3.668420 20.527765 1.742414 -6.421459 23.270919 -0.000000 -0.000000 0.000007 -12.798077 -11.730774 26.093221 7.096430 -4.803691 37.106376 0.000002 -0.000001 -0.000002 -10.279113 -10.017718 38.435646 3.702687 -0.867352 43.457762 -0.000002 -0.000003 -0.000000 -11.226707 -10.556376 39.654176 5.236506 5.735998 47.984787 -0.000002 0.000001 0.000000 -0.000002 -0.000001 0.000001 -0.000002 -0.000000 0.000000 -0.000002 -0.000000 0.000000 -0.000002 -0.000000 0.000000 -0.000002 -0.000000 0.000000 -0.000002 -0.000000 -0.000000 -0.000004 0.000000 -0.000000 -0.000002 -0.000000 0.000000 -0.000002 -0.000000 -0.000000 -0.000004 0.000000 -0.000000 0.000000 -0.000000 0.000000 0.000000 -0.000000 0.000000 0.000001 0.000000 -0.000000 
-0.052788 72.375496 -0.510357 -14.124335 4.652490 -0.395846 0.000000 -0.000000 -0.000000 -19.351488 -2.253186 14.275213 58.522372 -0.401932 0.376871 -24.712265 -1.624009 -11.780206 0.000000 0.000001 -0.000000 0.000000 0.000001 -0.000000 -0.000001 -0.000001 -0.000000 -15.673597 -9.871355 -15.698047 57.942926 0.101874 -0.387368 -27.202270 -3.762526 10.574431 -0.000000 0.000000 -0.000000 -0.000000 0.000000 -0.000000 -0.000000 0.000002 0.000001 20.011370 -0.020228 0.866774 6.966027 -0.327721 0.719249 6.966377 -0.324709 0.716456 -12.555786 -1.289426 -0.611312 -15.824418 -1.789683 -0.122986 0.000000 -0.000000 -0.000000 0.000000 -0.000000 -0.000000 0.000000 -0.000000 -0.000000 2.764794 -10.227419 -8.150478 -14.313656 -7.958069 -56.721856 68.594326 -63.723363 67.966352 16.833741 -3.061345 -12.252561 2.689261 3.159866 6.593330 -0.630829 19.898832 -2.536163 0.000003 -0.000001 0.000002 -12.168913 1.722895 -16.142747 1.361296 5.271973 -16.144870 0.000000 -0.000001 -0.000004 -13.999963 10.170316 -20.576846 5.654344 3.687262 -27.544205 -0.000000 -0.000002 -0.000002 -10.488788 8.375490 -35.525730 2.674440 -0.231058 -36.299648 -0.000002 0.000000 0.000001 -11.042174 8.059831 -37.136169 4.281208 -6.560031 -41.506175 0.000001 -0.000002 -0.000001 -0.000000 -0.000002 0.000001 8.718468 -2.429203 18.921157 -21.496058 12.656109 56.308288 77.004044 65.942587 -71.153086 6.484120 -2.258934 3.402542 2.153177 -3.555334 -6.484343 -1.483767 -19.373483 3.562841 0.000002 0.000001 0.000001 -10.129372 -5.075113 23.066148 1.897898 -6.845655 26.077664 0.000002 -0.000001 0.000001 -11.051863 -14.266145 29.928291 8.898197 -5.409243 45.950774 -0.000001 -0.000000 -0.000000 -9.577506 -12.642742 41.718556 4.859879 -1.754944 50.235375 -0.000002 0.000002 0.000001 -10.193549 -12.691905 40.965146 6.310991 5.065907 52.618056 0.000002 0.000000 -0.000001 0.000001 -0.000001 0.000001 0.000001 0.000000 -0.000000 0.000001 0.000000 -0.000000 0.000001 0.000000 -0.000000 0.000001 0.000000 -0.000000 0.000001 0.000000 -0.000000 0.000001 -0.000000 -0.000000 0.000001 0.000000 -0.000000 0.000001 0.000000 -0.000000 0.000001 -0.000000 -0.000000 -0.000000 -0.000000 0.000000 -0.000000 -0.000000 0.000000 0.000000 -0.000000 -0.000000 
-0.024988 72.323196 -0.438690 -14.144103 4.764676 -0.438733 0.000001 0.000000 0.000000 -19.386322 -2.347841 14.302462 58.739490 -0.416450 0.378169 -24.881787 -1.655650 -11.772642 0.000000 -0.000000 -0.000000 0.000000 -0.000000 -0.000000 -0.000001 -0.000000 -0.000000 -15.599338 -9.933484 -15.692752 58.045331 0.099917 -0.388361 -27.334523 -3.813168 10.625215 0.000000 -0.000002 0.000000 0.000000 -0.000002 0.000000 0.000002 -0.000000 -0.000000 20.004413 -0.008120 0.902247 6.959313 -0.313090 0.767879 6.959677 -0.306489 0.764834 -12.549952 -1.367070 -0.625489 -15.846493 -1.813089 -0.313113 -0.000001 0.000000 -0.000000 -0.000001 0.000000 -0.000000 -0.000001 0.000000 -0.000000 2.605486 -10.449068 -8.667086 -14.613400 -8.282414 -54.611983 67.543918 -63.362531 64.922765 16.132886 -3.862265 -11.017640 2.689261 3.159888 6.593352 -0.900164 19.338163 -2.567399 0.000001 -0.000001 0.000001 -13.757850 -1.808873 -12.928986 1.209595 4.688503 -12.660378 -0.000003 0.000001 -0.000003 -14.161526 10.155865 -19.030983 5.407125 3.296440 -25.125408 -0.000001 0.000001 0.000004 -10.326069 8.356981 -34.230897 2.383924 -0.635112 -34.078799 -0.000000 0.000001 -0.000002 -10.519301 7.413644 -35.362529 4.024506 -6.770194 -39.148640 -0.000000 0.000000 -0.000000 0.000002 0.000000 -0.000002 8.730926 -2.444811 18.974045 -21.553777 12.391529 55.888907 77.539087 66.277280 -71.520639 6.490337 -2.336625 3.273595 2.153184 -3.555309 -6.484339 -2.139603 -18.745803 4.295033 -0.000000 -0.000000 0.000001 -9.428680 -6.650061 26.075080 2.076154 -7.264227 28.901952 0.000001 0.000002 -0.000001 -8.933282 -16.558079 34.446498 9.998507 -5.648557 51.048902 -0.000001 0.000003 -0.000003 -9.304907 -14.241883 44.634579 5.737649 -2.268985 54.937732 -0.000003 0.000002 0.000001 -9.441447 -13.995630 43.355838 7.329739 4.554848 56.877980 -0.000001 -0.000002 0.000002 0.000001 0.000000 0.000001 0.000000 -0.000000 0.000000 0.000000 -0.000000 0.000000 0.000000 -0.000000 0.000000 0.000000 -0.000000 0.000000 0.000000 -0.000000 0.000000 0.000000 0.000000 -0.000000 0.000000 -0.000000 0.000000 0.000000 -0.000000 0.000000 0.000000 0.000000 -0.000000 0.000001 0.000001 -0.000000 0.000001 0.000001 -0.000000 0.000001 0.000000 0.000000 
